<svg width="138" height="51" viewBox="0 0 138 51" fill="none" xmlns="http://www.w3.org/2000/svg">
<g clip-path="url(#clip0_60_11431)">
<path d="M71.2467 16.8922L77.8122 16.4699C77.962 17.5381 78.2366 18.333 78.686 18.9044C79.4099 19.7987 80.4085 20.2458 81.7316 20.2458C82.7051 20.2458 83.479 20.0223 84.0033 19.5503C84.5025 19.1776 84.8021 18.5814 84.8021 17.9604C84.8021 17.3642 84.5275 16.7928 84.0532 16.4202C83.5539 15.9731 82.3806 15.5259 80.5333 15.1284C77.5127 14.4577 75.3408 13.5634 74.0677 12.4207C72.7945 11.3525 72.0705 9.78748 72.1205 8.12309C72.1205 6.98037 72.47 5.83765 73.119 4.89367C73.8679 3.82547 74.8915 2.98086 76.1147 2.50886C77.4378 1.9375 79.2851 1.6394 81.6067 1.6394C84.4526 1.6394 86.6245 2.16108 88.1223 3.22927C89.6201 4.27262 90.5188 5.96186 90.7934 8.27214L84.3028 8.64476C84.1281 7.65109 83.7786 6.93069 83.2044 6.45869C82.6302 5.9867 81.8813 5.76313 80.9077 5.76313C80.1089 5.76313 79.5098 5.93702 79.1104 6.25996C78.7359 6.55806 78.4863 7.00521 78.5112 7.50205C78.5112 7.87467 78.7109 8.22245 79.0105 8.44603C79.335 8.74413 80.1089 9.01739 81.3321 9.26581C84.3528 9.91169 86.4996 10.5576 87.8227 11.2283C89.1458 11.899 90.0944 12.7188 90.6686 13.6876C91.2677 14.6813 91.5673 15.824 91.5423 16.9916C91.5423 18.3827 91.1429 19.7738 90.3441 20.9414C89.5203 22.1586 88.3719 23.1026 87.0239 23.674C85.6009 24.295 83.8036 24.618 81.6567 24.618C77.8622 24.618 75.241 23.8976 73.7681 22.4319C72.2952 20.9662 71.4215 19.128 71.2467 16.8922ZM1.57272 24.2453V2.03687H13.081C15.203 2.03687 16.8506 2.21076 17.974 2.58339C19.0724 2.93117 20.0459 3.65158 20.695 4.62041C21.419 5.6886 21.7685 6.93069 21.7435 8.22245C21.8184 10.4085 20.695 12.4952 18.7728 13.5883C18.0239 14.0106 17.2001 14.3087 16.3513 14.4577C16.9754 14.6316 17.5995 14.9297 18.1487 15.2775C18.5731 15.6253 18.9226 16.0227 19.2471 16.4451C19.6216 16.8674 19.9461 17.3394 20.2207 17.8362L23.5658 24.2702H15.7272L12.0326 17.4387C11.5582 16.5693 11.1588 15.9979 10.7844 15.7246C10.2851 15.3769 9.68596 15.203 9.08683 15.203H8.4877V24.2205H1.57272V24.2453ZM8.4877 11.0296H11.4085C12.0326 10.9799 12.6317 10.8805 13.2308 10.7315C13.6802 10.6569 14.0796 10.4085 14.3542 10.0359C15.0282 9.1416 14.9284 7.87467 14.1046 7.10458C13.6552 6.73195 12.7815 6.53322 11.5333 6.53322H8.4877V11.0296ZM0 43.2741L6.56549 42.8518C6.71527 43.92 6.98987 44.7149 7.43922 45.2863C8.13821 46.1806 9.16172 46.6526 10.4848 46.6526C11.4584 46.6526 12.2323 46.429 12.7565 45.957C13.2558 45.5595 13.5554 44.9882 13.5554 44.3671C13.5554 43.7709 13.2808 43.1996 12.8064 42.8269C12.3072 42.3798 11.1339 41.9326 9.26158 41.5352C6.24095 40.8644 4.0691 39.9701 2.79595 38.8274C1.52279 37.7592 0.798842 36.1942 0.84877 34.5298C0.84877 33.3871 1.19826 32.2444 1.84732 31.3004C2.59624 30.2322 3.61975 29.3876 4.84298 28.9156C6.16606 28.3442 8.01339 28.0461 10.335 28.0461C13.1809 28.0461 15.3527 28.5678 16.8506 29.636C18.3484 30.7042 19.2221 32.3686 19.4967 34.6789L13.0062 35.0515C12.8314 34.0578 12.4819 33.3374 11.9077 32.8654C11.3585 32.3934 10.5847 32.1699 9.61107 32.1947C8.81223 32.1947 8.2131 32.3686 7.81368 32.7164C7.41425 33.0145 7.18958 33.4616 7.21454 33.9585C7.21454 34.3311 7.41425 34.6789 7.71382 34.9024C8.03835 35.2005 8.81223 35.4738 10.0355 35.7222C13.0561 36.3681 15.203 37.014 16.526 37.6847C17.8491 38.3554 18.7978 39.1752 19.3719 40.144C19.9711 41.1377 20.2706 42.2804 20.2706 43.4231C20.2706 44.8143 19.8462 46.1806 19.0724 47.3481C18.2486 48.5654 17.1002 49.5094 15.7522 50.0807C14.3292 50.7018 12.5318 51.0247 10.3849 51.0247C6.59045 51.0247 3.96925 50.3043 2.49638 48.8386C1.02352 47.3481 0.199711 45.5098 0 43.2741H0Z" fill="white"/>
<path d="M33.2012 41.5352L39.2425 43.3486C38.9179 44.864 38.2439 46.3048 37.3202 47.5717C36.4715 48.6896 35.3481 49.559 34.0749 50.1304C32.7768 50.7018 31.1292 50.9999 29.1321 50.9999C26.7106 50.9999 24.7135 50.6521 23.1907 49.9565C21.643 49.261 20.3199 48.0189 19.1965 46.2551C18.0731 44.4913 17.5239 42.2307 17.5239 39.4733C17.5239 35.7967 18.4975 32.9648 20.4697 31.0023C22.4418 29.0398 25.2128 28.0461 28.8076 28.0461C31.6285 28.0461 33.8253 28.6175 35.448 29.7354C37.0456 30.8781 38.2439 32.617 39.0427 34.9521L32.9516 36.2936C32.8018 35.7719 32.5771 35.2502 32.2775 34.8031C31.9031 34.2814 31.4288 33.8839 30.8546 33.5858C30.2804 33.2877 29.6314 33.1635 28.9823 33.1635C27.4096 33.1635 26.2113 33.7846 25.3875 35.0515C24.7634 35.9706 24.4389 37.4363 24.4389 39.4236C24.4389 41.883 24.8134 43.5722 25.5623 44.4913C26.3112 45.4105 27.3597 45.8576 28.7327 45.8576C30.0558 45.8576 31.0543 45.485 31.7283 44.7646C32.4024 43.9945 32.9016 42.9263 33.2012 41.5352ZM47.3058 28.4188H54.1958V36.1942H61.7349V28.4188H68.6748V50.6272H61.7349V41.6346H54.1958V50.6272H47.3058V28.4188Z" fill="white"/>
<path d="M67.7271 39.5232C67.7271 35.8963 68.7506 33.0643 70.7726 31.0522C72.7947 29.04 75.6406 28.0215 79.2603 28.0215C82.98 28.0215 85.8258 29.0152 87.8479 31.0025C89.87 32.9898 90.8685 35.7721 90.8685 39.3493C90.8685 41.9577 90.4192 44.0692 89.5454 45.7336C88.6967 47.3732 87.3736 48.7146 85.7509 49.6089C84.0784 50.5281 82.0064 51.0001 79.5349 51.0001C77.0136 51.0001 74.9416 50.6026 73.294 49.8076C71.5964 48.963 70.1985 47.6464 69.2748 46.0317C68.2513 44.2928 67.7271 42.1316 67.7271 39.5232ZM74.6171 39.548C74.6171 41.7838 75.0415 43.3985 75.8653 44.3922C76.6891 45.361 77.8374 45.8578 79.2853 45.8578C80.7582 45.8578 81.9065 45.3858 82.7303 44.417C83.5541 43.4482 83.9535 41.7341 83.9535 39.2499C83.9535 37.1632 83.5292 35.623 82.6804 34.6791C81.8316 33.7102 80.6833 33.2382 79.2354 33.2382C77.9622 33.1886 76.739 33.7351 75.8902 34.7039C75.0415 35.6727 74.6171 37.2874 74.6171 39.548ZM97.9333 39.5232C97.9333 35.8963 98.9568 33.0643 100.979 31.0522C103.001 29.04 105.847 28.0215 109.467 28.0215C113.186 28.0215 116.057 29.0152 118.054 31.0025C120.051 32.9898 121.075 35.7721 121.075 39.3493C121.075 41.9577 120.625 44.0692 119.752 45.7336C118.903 47.3732 117.58 48.7146 115.957 49.6089C114.285 50.5281 112.213 51.0001 109.741 51.0001C107.22 51.0001 105.148 50.6026 103.5 49.8076C101.803 48.963 100.405 47.6464 99.481 46.0317C98.4575 44.2928 97.9333 42.1316 97.9333 39.5232ZM104.823 39.548C104.823 41.7838 105.248 43.3985 106.071 44.3922C106.895 45.361 108.044 45.8578 109.492 45.8578C110.964 45.8578 112.113 45.3858 112.937 44.417C113.76 43.4482 114.16 41.7341 114.16 39.2499C114.16 37.1632 113.735 35.623 112.887 34.6791C112.038 33.7102 110.89 33.2382 109.442 33.2382C108.168 33.1886 106.92 33.7351 106.096 34.7039C105.248 35.6727 104.823 37.2874 104.823 39.548Z" fill="white"/>
<path d="M120.35 28.4187H127.24V45.162H138V50.6272H120.325V28.4187H120.35Z" fill="white"/>
<path d="M112.722 27.1408C119.653 21.9313 121.793 13.1033 117.501 7.4229C113.209 1.74249 104.111 1.36075 97.1805 6.57027C90.2495 11.7798 88.11 20.6078 92.4018 26.2882C96.6935 31.9686 105.791 32.3504 112.722 27.1408Z" stroke="white" stroke-width="0.180618" stroke-miterlimit="10"/>
<path d="M112.722 27.1408C119.653 21.9313 121.793 13.1033 117.501 7.4229C113.209 1.74249 104.111 1.36075 97.1805 6.57027C90.2495 11.7798 88.11 20.6078 92.4018 26.2882C96.6935 31.9686 105.791 32.3504 112.722 27.1408Z" stroke="white" stroke-width="0.180618" stroke-miterlimit="10"/>
<path d="M97.9572 15.2278L100.454 13.4888L103.524 17.8361C104.048 18.5317 104.448 19.277 104.747 20.0967C104.922 20.7178 104.872 21.3885 104.623 21.9847C104.298 22.7299 103.774 23.351 103.075 23.7981C102.251 24.3695 101.552 24.6924 100.953 24.7918C100.379 24.8912 99.7795 24.7918 99.2303 24.5434C98.6312 24.2453 98.1069 23.823 97.7075 23.2765L99.8544 21.2891C100.029 21.5624 100.254 21.8108 100.503 22.0095C100.678 22.1337 100.878 22.2083 101.103 22.2083C101.277 22.2083 101.452 22.1337 101.577 22.0344C101.827 21.8853 102.001 21.5872 101.976 21.2891C101.901 20.8668 101.727 20.4445 101.452 20.1216L97.9572 15.2278ZM105.446 17.9852L107.718 16.1966C107.968 16.4947 108.292 16.7183 108.642 16.8425C109.141 16.9915 109.665 16.8922 110.09 16.5692C110.389 16.3705 110.639 16.0972 110.739 15.7494C110.888 15.3023 110.639 14.8055 110.189 14.6564C110.115 14.6316 110.04 14.6067 109.965 14.6067C109.665 14.5819 109.141 14.7061 108.367 15.029C107.094 15.5507 106.095 15.7494 105.346 15.6749C104.623 15.6004 103.948 15.2278 103.549 14.6067C103.249 14.1844 103.1 13.6876 103.075 13.1907C103.075 12.6194 103.225 12.048 103.549 11.576C104.023 10.9053 104.598 10.3339 105.297 9.8868C106.345 9.16639 107.269 8.8186 108.068 8.8186C108.866 8.8186 109.615 9.19123 110.314 9.96132L108.068 11.7251C107.618 11.1537 106.769 11.0295 106.195 11.4767L106.12 11.5512C105.871 11.7002 105.696 11.9238 105.596 12.1971C105.521 12.3958 105.571 12.6194 105.696 12.7933C105.796 12.9175 105.946 13.0168 106.12 13.0168C106.32 13.0417 106.67 12.9423 107.169 12.7187C108.417 12.1971 109.366 11.899 110.015 11.7996C110.564 11.7002 111.138 11.7499 111.662 11.9735C112.137 12.1722 112.536 12.52 112.811 12.9423C113.16 13.4392 113.36 14.0354 113.385 14.6564C113.41 15.3023 113.235 15.9233 112.886 16.4698C112.436 17.1406 111.862 17.7119 111.188 18.1591C109.815 19.1031 108.692 19.5005 107.793 19.3515C106.819 19.2024 106.02 18.7056 105.446 17.9852Z" fill="white"/>
</g>
<defs>
<clipPath id="clip0_60_11431">
<rect width="138" height="51" fill="white"/>
</clipPath>
</defs>
</svg>
