<svg width="998" height="37" viewBox="0 0 998 37" fill="none" xmlns="http://www.w3.org/2000/svg">
<g clip-path="url(#clip0_45070_1203)">
<circle cx="128.389" cy="22.7189" r="2.64175" fill="#F58021"/>
<mask id="path-2-outside-1_45070_1203" maskUnits="userSpaceOnUse" x="136.258" y="14.4688" width="42" height="17" fill="black">
<rect fill="white" x="136.258" y="14.4688" width="42" height="17"/>
<path d="M137.426 29.4688V16.1543H138.834V28.2514H146.29V29.4688H137.426ZM148.627 29.4688V16.1543H150.034V29.4688H148.627ZM158.003 29.4688L152.107 16.1543H153.628L159.144 28.6889H158.307L163.861 16.1543H165.288L159.391 29.4688H158.003ZM168.476 22.1078H175.513V23.3061H168.476V22.1078ZM168.628 28.2514H176.635V29.4688H167.22V16.1543H176.35V17.3716H168.628V28.2514Z"/>
</mask>
<path d="M137.426 29.4688V16.1543H138.834V28.2514H146.29V29.4688H137.426ZM148.627 29.4688V16.1543H150.034V29.4688H148.627ZM158.003 29.4688L152.107 16.1543H153.628L159.144 28.6889H158.307L163.861 16.1543H165.288L159.391 29.4688H158.003ZM168.476 22.1078H175.513V23.3061H168.476V22.1078ZM168.628 28.2514H176.635V29.4688H167.22V16.1543H176.35V17.3716H168.628V28.2514Z" fill="#EAEAEA"/>
<path d="M137.426 29.4688H136.369V30.5255H137.426V29.4688ZM137.426 16.1543V15.0976H136.369V16.1543H137.426ZM138.834 16.1543H139.89V15.0976H138.834V16.1543ZM138.834 28.2514H137.777V29.3081H138.834V28.2514ZM146.29 28.2514H147.346V27.1947H146.29V28.2514ZM146.29 29.4688V30.5255H147.346V29.4688H146.29ZM137.426 29.4688H138.483V16.1543H137.426H136.369V29.4688H137.426ZM137.426 16.1543V17.211H138.834V16.1543V15.0976H137.426V16.1543ZM138.834 16.1543H137.777V28.2514H138.834H139.89V16.1543H138.834ZM138.834 28.2514V29.3081H146.29V28.2514V27.1947H138.834V28.2514ZM146.29 28.2514H145.233V29.4688H146.29H147.346V28.2514H146.29ZM146.29 29.4688V28.412H137.426V29.4688V30.5255H146.29V29.4688ZM148.627 29.4688H147.57V30.5255H148.627V29.4688ZM148.627 16.1543V15.0976H147.57V16.1543H148.627ZM150.034 16.1543H151.091V15.0976H150.034V16.1543ZM150.034 29.4688V30.5255H151.091V29.4688H150.034ZM148.627 29.4688H149.683V16.1543H148.627H147.57V29.4688H148.627ZM148.627 16.1543V17.211H150.034V16.1543V15.0976H148.627V16.1543ZM150.034 16.1543H148.978V29.4688H150.034H151.091V16.1543H150.034ZM150.034 29.4688V28.412H148.627V29.4688V30.5255H150.034V29.4688ZM158.003 29.4688L157.037 29.8966L157.315 30.5255H158.003V29.4688ZM152.107 16.1543V15.0976H150.483L151.14 16.5822L152.107 16.1543ZM153.628 16.1543L154.595 15.7287L154.318 15.0976H153.628V16.1543ZM159.144 28.6889V29.7456H160.764L160.111 28.2633L159.144 28.6889ZM158.307 28.6889L157.341 28.2608L156.683 29.7456H158.307V28.6889ZM163.861 16.1543V15.0976H163.174L162.895 15.7262L163.861 16.1543ZM165.288 16.1543L166.254 16.5822L166.911 15.0976H165.288V16.1543ZM159.391 29.4688V30.5255H160.079L160.358 29.8966L159.391 29.4688ZM158.003 29.4688L158.969 29.0409L153.073 15.7264L152.107 16.1543L151.14 16.5822L157.037 29.8966L158.003 29.4688ZM152.107 16.1543V17.211H153.628V16.1543V15.0976H152.107V16.1543ZM153.628 16.1543L152.661 16.5799L158.177 29.1145L159.144 28.6889L160.111 28.2633L154.595 15.7287L153.628 16.1543ZM159.144 28.6889V27.6322H158.307V28.6889V29.7456H159.144V28.6889ZM158.307 28.6889L159.273 29.117L164.827 16.5824L163.861 16.1543L162.895 15.7262L157.341 28.2608L158.307 28.6889ZM163.861 16.1543V17.211H165.288V16.1543V15.0976H163.861V16.1543ZM165.288 16.1543L164.322 15.7264L158.425 29.0409L159.391 29.4688L160.358 29.8966L166.254 16.5822L165.288 16.1543ZM159.391 29.4688V28.412H158.003V29.4688V30.5255H159.391V29.4688ZM168.476 22.1078V21.0511H167.419V22.1078H168.476ZM175.513 22.1078H176.57V21.0511H175.513V22.1078ZM175.513 23.3061V24.3628H176.57V23.3061H175.513ZM168.476 23.3061H167.419V24.3628H168.476V23.3061ZM168.628 28.2514H167.571V29.3081H168.628V28.2514ZM176.635 28.2514H177.692V27.1947H176.635V28.2514ZM176.635 29.4688V30.5255H177.692V29.4688H176.635ZM167.22 29.4688H166.163V30.5255H167.22V29.4688ZM167.22 16.1543V15.0976H166.163V16.1543H167.22ZM176.35 16.1543H177.407V15.0976H176.35V16.1543ZM176.35 17.3716V18.4283H177.407V17.3716H176.35ZM168.628 17.3716V16.3149H167.571V17.3716H168.628ZM168.476 22.1078V23.1645H175.513V22.1078V21.0511H168.476V22.1078ZM175.513 22.1078H174.456V23.3061H175.513H176.57V22.1078H175.513ZM175.513 23.3061V22.2494H168.476V23.3061V24.3628H175.513V23.3061ZM168.476 23.3061H169.532V22.1078H168.476H167.419V23.3061H168.476ZM168.628 28.2514V29.3081H176.635V28.2514V27.1947H168.628V28.2514ZM176.635 28.2514H175.579V29.4688H176.635H177.692V28.2514H176.635ZM176.635 29.4688V28.412H167.22V29.4688V30.5255H176.635V29.4688ZM167.22 29.4688H168.277V16.1543H167.22H166.163V29.4688H167.22ZM167.22 16.1543V17.211H176.35V16.1543V15.0976H167.22V16.1543ZM176.35 16.1543H175.293V17.3716H176.35H177.407V16.1543H176.35ZM176.35 17.3716V16.3149H168.628V17.3716V18.4283H176.35V17.3716ZM168.628 17.3716H167.571V28.2514H168.628H169.684V17.3716H168.628Z" fill="black" fill-opacity="0.1" mask="url(#path-2-outside-1_45070_1203)"/>
<mask id="path-4-outside-2_45070_1203" maskUnits="userSpaceOnUse" x="93.103" y="10.7529" width="18" height="23" fill="black">
<rect fill="white" x="93.103" y="10.7529" width="18" height="23"/>
<path fill-rule="evenodd" clip-rule="evenodd" d="M95.103 19.0364H99.3298L104.613 13.7529V30.6601L99.3298 25.3766H95.103V19.0364ZM106.727 17.9797V26.4333L108.47 24.1086C109.316 22.9814 109.316 21.4316 108.47 20.3045L106.727 17.9797Z"/>
</mask>
<path fill-rule="evenodd" clip-rule="evenodd" d="M95.103 19.0364H99.3298L104.613 13.7529V30.6601L99.3298 25.3766H95.103V19.0364ZM106.727 17.9797V26.4333L108.47 24.1086C109.316 22.9814 109.316 21.4316 108.47 20.3045L106.727 17.9797Z" fill="#EAEAEA"/>
<path d="M99.3298 19.0364V20.0931H99.7675L100.077 19.7836L99.3298 19.0364ZM95.103 19.0364V17.9797H94.0463V19.0364H95.103ZM104.613 13.7529H105.67V11.2018L103.866 13.0057L104.613 13.7529ZM104.613 30.6601L103.866 31.4073L105.67 33.2112V30.6601H104.613ZM99.3298 25.3766L100.077 24.6294L99.7675 24.3199H99.3298V25.3766ZM95.103 25.3766H94.0463V26.4333H95.103V25.3766ZM106.727 26.4333H105.67V29.6034L107.572 27.0674L106.727 26.4333ZM106.727 17.9797L107.572 17.3457L105.67 14.8096V17.9797H106.727ZM108.47 24.1086L109.316 24.7426V24.7426L108.47 24.1086ZM108.47 20.3045L107.625 20.9385V20.9385L108.47 20.3045ZM99.3298 19.0364V17.9797H95.103V19.0364V20.0931H99.3298V19.0364ZM104.613 13.7529L103.866 13.0057L98.5826 18.2892L99.3298 19.0364L100.077 19.7836L105.361 14.5001L104.613 13.7529ZM104.613 30.6601H105.67V13.7529H104.613H103.557V30.6601H104.613ZM99.3298 25.3766L98.5826 26.1238L103.866 31.4073L104.613 30.6601L105.361 29.9129L100.077 24.6294L99.3298 25.3766ZM95.103 25.3766V26.4333H99.3298V25.3766V24.3199H95.103V25.3766ZM95.103 19.0364H94.0463V25.3766H95.103H96.1597V19.0364H95.103ZM106.727 26.4333H107.783V17.9797H106.727H105.67V26.4333H106.727ZM108.47 24.1086L107.625 23.4746L105.881 25.7993L106.727 26.4333L107.572 27.0674L109.316 24.7426L108.47 24.1086ZM108.47 20.3045L107.625 20.9385C108.189 21.6899 108.189 22.7231 107.625 23.4746L108.47 24.1086L109.316 24.7426C110.443 23.2398 110.443 21.1733 109.316 19.6705L108.47 20.3045ZM106.727 17.9797L105.881 18.6138L107.625 20.9385L108.47 20.3045L109.316 19.6705L107.572 17.3457L106.727 17.9797Z" fill="black" fill-opacity="0.1" mask="url(#path-4-outside-2_45070_1203)"/>
<mask id="path-6-outside-3_45070_1203" maskUnits="userSpaceOnUse" x="59.2886" y="12.8662" width="16" height="18" fill="black">
<rect fill="white" x="59.2886" y="12.8662" width="16" height="18"/>
<path fill-rule="evenodd" clip-rule="evenodd" d="M61.2886 15.8662L69.7422 22.2064L61.2886 28.5466V15.8662ZM73.969 15.8662H71.8556V28.5466H73.969V15.8662Z"/>
</mask>
<path fill-rule="evenodd" clip-rule="evenodd" d="M61.2886 15.8662L69.7422 22.2064L61.2886 28.5466V15.8662ZM73.969 15.8662H71.8556V28.5466H73.969V15.8662Z" fill="#EAEAEA"/>
<path d="M69.7422 22.2064L70.3762 23.0518L71.5033 22.2064L70.3762 21.3611L69.7422 22.2064ZM61.2886 15.8662L61.9226 15.0209L60.2319 13.7528V15.8662H61.2886ZM61.2886 28.5466H60.2319V30.66L61.9226 29.392L61.2886 28.5466ZM71.8556 15.8662V14.8095H70.7989V15.8662H71.8556ZM73.969 15.8662H75.0257V14.8095H73.969V15.8662ZM71.8556 28.5466H70.7989V29.6033H71.8556V28.5466ZM73.969 28.5466V29.6033H75.0257V28.5466H73.969ZM69.7422 22.2064L70.3762 21.3611L61.9226 15.0209L61.2886 15.8662L60.6546 16.7116L69.1082 23.0518L69.7422 22.2064ZM61.2886 28.5466L61.9226 29.392L70.3762 23.0518L69.7422 22.2064L69.1082 21.3611L60.6546 27.7013L61.2886 28.5466ZM61.2886 15.8662H60.2319V28.5466H61.2886H62.3453V15.8662H61.2886ZM71.8556 15.8662V16.9229H73.969V15.8662V14.8095H71.8556V15.8662ZM71.8556 28.5466H72.9123V15.8662H71.8556H70.7989V28.5466H71.8556ZM73.969 28.5466V27.4899H71.8556V28.5466V29.6033H73.969V28.5466ZM73.969 15.8662H72.9123V28.5466H73.969H75.0257V15.8662H73.969Z" fill="black" fill-opacity="0.1" mask="url(#path-6-outside-3_45070_1203)"/>
<path d="M17.9639 30.6601V13.7529L31.701 22.2065L17.9639 30.6601Z" fill="#EAEAEA"/>
<path d="M18.2412 13.3027L31.9775 21.7568L32.709 22.2061L31.9775 22.6562L18.2412 31.1104L17.4355 31.6055V12.8076L18.2412 13.3027Z" stroke="black" stroke-opacity="0.1" stroke-width="1.0567"/>
<g clip-path="url(#clip1_45070_1203)">
<rect y="-0.169922" width="1327.58" height="3.1701" fill="#EAEAEA" fill-opacity="0.2"/>
<rect y="-0.169922" width="1004.92" height="3.1701" fill="#F58021"/>
</g>
</g>
<defs>
<clipPath id="clip0_45070_1203">
<rect width="997.526" height="36.9444" fill="white"/>
</clipPath>
<clipPath id="clip1_45070_1203">
<rect width="999.639" height="3.16667" fill="white"/>
</clipPath>
</defs>
</svg>
